<mxfile host="app.diagrams.net" agent="Mozilla/5.0 (Windows NT 10.0; Win64; x64; rv:131.0) Gecko/20100101 Firefox/131.0 Trailer/92.3.3128.24" version="24.8.0">
  <diagram name="Page-1" id="b520641d-4fe3-3701-9064-5fc419738815">
    <mxGraphModel dx="1050" dy="604" grid="1" gridSize="10" guides="1" tooltips="1" connect="1" arrows="1" fold="1" page="1" pageScale="1" pageWidth="1100" pageHeight="850" background="none" math="0" shadow="0">
      <root>
        <mxCell id="0" />
        <mxCell id="1" parent="0" />
        <mxCell id="LnaM5Q9gMqin32GYuqui-1" value="Student" style="rounded=0;whiteSpace=wrap;html=1;fillColor=#FF0000;gradientColor=none;gradientDirection=south;shadow=0;" vertex="1" parent="1">
          <mxGeometry x="460" y="425" width="120" height="60" as="geometry" />
        </mxCell>
        <mxCell id="LnaM5Q9gMqin32GYuqui-2" value="Accounting Department" style="rounded=0;whiteSpace=wrap;html=1;fillColor=#FF0000;gradientColor=none;gradientDirection=south;shadow=0;" vertex="1" parent="1">
          <mxGeometry x="460" y="490" width="120" height="60" as="geometry" />
        </mxCell>
        <mxCell id="LnaM5Q9gMqin32GYuqui-3" value="Course Database" style="rounded=0;whiteSpace=wrap;html=1;fillColor=#FF0000;gradientColor=none;gradientDirection=south;shadow=0;" vertex="1" parent="1">
          <mxGeometry x="460" y="560" width="120" height="60" as="geometry" />
        </mxCell>
        <mxCell id="LnaM5Q9gMqin32GYuqui-4" value="Student Enrollment" style="rounded=1;whiteSpace=wrap;html=1;fillColor=#FF0000;" vertex="1" parent="1">
          <mxGeometry x="300" y="425" width="120" height="60" as="geometry" />
        </mxCell>
        <mxCell id="LnaM5Q9gMqin32GYuqui-5" value="Check Course Availability" style="rounded=1;whiteSpace=wrap;html=1;fillColor=#FF0000;" vertex="1" parent="1">
          <mxGeometry x="300" y="490" width="120" height="60" as="geometry" />
        </mxCell>
        <mxCell id="LnaM5Q9gMqin32GYuqui-6" value="Process Payment" style="rounded=1;whiteSpace=wrap;html=1;fillColor=#FF0000;" vertex="1" parent="1">
          <mxGeometry x="300" y="560" width="120" height="60" as="geometry" />
        </mxCell>
        <mxCell id="LnaM5Q9gMqin32GYuqui-7" value="Confirm Enrollment" style="rounded=1;whiteSpace=wrap;html=1;fillColor=#FF0000;" vertex="1" parent="1">
          <mxGeometry x="300" y="630" width="120" height="60" as="geometry" />
        </mxCell>
        <mxCell id="LnaM5Q9gMqin32GYuqui-13" value="Course Database" style="group;fontColor=#FFF81F;labelBackgroundColor=none;labelBorderColor=default;" vertex="1" connectable="0" parent="1">
          <mxGeometry x="600" y="490" width="120" height="60" as="geometry" />
        </mxCell>
        <mxCell id="LnaM5Q9gMqin32GYuqui-11" value="" style="shape=partialRectangle;whiteSpace=wrap;html=1;left=0;right=0;fillColor=none;strokeWidth=3;" vertex="1" parent="LnaM5Q9gMqin32GYuqui-13">
          <mxGeometry width="120" height="60" as="geometry" />
        </mxCell>
        <mxCell id="LnaM5Q9gMqin32GYuqui-12" value="" style="shape=partialRectangle;whiteSpace=wrap;html=1;right=0;top=0;bottom=0;fillColor=none;routingCenterX=-0.5;strokeWidth=3;fontStyle=3;fontColor=none;noLabel=1;" vertex="1" parent="LnaM5Q9gMqin32GYuqui-13">
          <mxGeometry width="120" height="60" as="geometry" />
        </mxCell>
        <mxCell id="LnaM5Q9gMqin32GYuqui-15" value="Student Database" style="group;fontColor=#FFF81F;labelBackgroundColor=none;labelBorderColor=default;" vertex="1" connectable="0" parent="1">
          <mxGeometry x="600" y="425" width="120" height="60" as="geometry" />
        </mxCell>
        <mxCell id="LnaM5Q9gMqin32GYuqui-16" value="" style="shape=partialRectangle;whiteSpace=wrap;html=1;left=0;right=0;fillColor=none;strokeWidth=3;" vertex="1" parent="LnaM5Q9gMqin32GYuqui-15">
          <mxGeometry width="120" height="60" as="geometry" />
        </mxCell>
        <mxCell id="LnaM5Q9gMqin32GYuqui-17" value="" style="shape=partialRectangle;whiteSpace=wrap;html=1;right=0;top=0;bottom=0;fillColor=none;routingCenterX=-0.5;strokeWidth=3;fontStyle=3;fontColor=none;noLabel=1;" vertex="1" parent="LnaM5Q9gMqin32GYuqui-15">
          <mxGeometry width="120" height="60" as="geometry" />
        </mxCell>
        <mxCell id="LnaM5Q9gMqin32GYuqui-18" value="Payment Database" style="group;fontColor=#FFF81F;labelBackgroundColor=none;labelBorderColor=default;" vertex="1" connectable="0" parent="1">
          <mxGeometry x="600" y="560" width="120" height="60" as="geometry" />
        </mxCell>
        <mxCell id="LnaM5Q9gMqin32GYuqui-19" value="" style="shape=partialRectangle;whiteSpace=wrap;html=1;left=0;right=0;fillColor=none;strokeWidth=3;" vertex="1" parent="LnaM5Q9gMqin32GYuqui-18">
          <mxGeometry width="120" height="60" as="geometry" />
        </mxCell>
        <mxCell id="LnaM5Q9gMqin32GYuqui-20" value="" style="shape=partialRectangle;whiteSpace=wrap;html=1;right=0;top=0;bottom=0;fillColor=none;routingCenterX=-0.5;strokeWidth=3;fontStyle=3;fontColor=none;noLabel=1;" vertex="1" parent="LnaM5Q9gMqin32GYuqui-18">
          <mxGeometry width="120" height="60" as="geometry" />
        </mxCell>
      </root>
    </mxGraphModel>
  </diagram>
</mxfile>
